<svg width="184" height="21" viewBox="0 0 184 21" fill="none" xmlns="http://www.w3.org/2000/svg">
<path fill-rule="evenodd" clip-rule="evenodd" d="M0 0H58.2354V20.5304H0V0ZM0.592355 10.3147C0.592355 5.10863 13.4075 0.888376 29.2165 0.888376C45.0252 0.888376 57.8404 5.10863 57.8404 10.3147C57.8404 15.5208 45.0252 19.741 29.2165 19.741C13.4078 19.741 0.592355 15.5208 0.592355 10.3147Z" fill="#2360A5"/>
<path fill-rule="evenodd" clip-rule="evenodd" d="M0.591797 10.3145C0.591797 5.10844 13.407 0.888184 29.216 0.888184C45.0247 0.888184 57.8398 5.10844 57.8398 10.3145C57.8398 15.5206 45.0247 19.7408 29.216 19.7408C13.4073 19.7408 0.591797 15.5206 0.591797 10.3145Z" fill="#F6D33C"/>
<path fill-rule="evenodd" clip-rule="evenodd" d="M8.40548 6.42829H13.4936C13.4936 6.42829 13.3579 6.64182 13.3579 6.90859V13.4587C13.3579 13.8145 13.5104 14.1171 13.5104 14.1171H8.38867C8.38867 14.1171 8.5412 13.8142 8.5412 13.5116V6.96181C8.5412 6.71279 8.40548 6.42829 8.40548 6.42829ZM16.0267 6.44572H20.8649C20.8649 6.44572 20.7291 6.67357 20.7291 6.88431V9.23443L22.4436 7.04212C22.4436 7.04212 22.5457 6.88431 22.5457 6.72649V6.48089H27.4685L25.3805 9.39224C25.3805 9.39224 25.2787 9.51489 25.2787 9.60266C25.2787 9.69044 25.3637 9.81309 25.3637 9.81309L28.046 14.0747H22.1209C22.1209 14.0747 22.2229 13.9172 22.2229 13.7591C22.2229 13.6016 22.1209 13.4083 22.1209 13.4083L20.7117 11.1108V13.6016C20.7117 13.812 20.8645 14.0922 20.8645 14.0922H16.0267C16.0267 14.0922 16.1624 13.8995 16.1624 13.6891V6.88399C16.1624 6.67388 16.0267 6.44572 16.0267 6.44572ZM29.4868 6.49895H38.1412V8.82355C38.1412 8.82355 37.9544 8.65141 37.7176 8.65141H34.1706V9.28828H37.2591V11.3374C37.2591 11.3374 37.0555 11.1653 36.8348 11.1653H34.1367V11.8712H37.768C37.9716 11.8712 38.0908 11.5441 38.0908 11.5441V14.0922H29.4868C29.4868 14.0922 29.64 13.8684 29.64 13.7134V7.06734C29.6403 6.79155 29.4868 6.49895 29.4868 6.49895ZM41.9702 6.41553H48.8898C48.8898 6.41553 48.7541 6.73583 48.7541 6.91388C48.7541 7.09193 48.8727 7.41223 48.8727 7.41223L51.6371 14.1046H46.4476C46.4476 14.1046 46.5662 13.9088 46.498 13.7488C46.3551 13.3934 46.2139 13.0373 46.0743 12.6805H43.9374C43.9374 12.6805 43.5132 13.624 43.5132 13.8024C43.5132 13.9798 43.6495 14.1227 43.6495 14.1227H39.3751L42.0549 7.12741C42.0549 7.12741 42.157 6.98485 42.157 6.80711C42.157 6.62937 41.9702 6.41553 41.9702 6.41553ZM44.9043 9.83301L44.3953 11.2035H45.5147L44.9043 9.83301Z" fill="#2360A5"/>
<path d="M66.7441 5.15527V16.5303H64.4082V5.15527H66.7441ZM71.2832 5.15527V16.5303H68.9395V5.15527H71.2832ZM78.0957 5.15527L73.5879 10.7725L70.9863 13.5693L70.5645 11.3506L72.3223 8.94434L75.2207 5.15527H78.0957ZM75.4316 16.5303L72.0801 11.2725L73.8145 9.81934L78.2051 16.5303H75.4316ZM86.7441 14.7021V16.5303H80.6895V14.7021H86.7441ZM81.4551 5.15527V16.5303H79.1113V5.15527H81.4551ZM85.9551 9.78809V11.5693H80.6895V9.78809H85.9551ZM86.7363 5.15527V6.99121H80.6895V5.15527H86.7363ZM92.7363 7.10059L89.6426 16.5303H87.1504L91.377 5.15527H92.9629L92.7363 7.10059ZM95.3066 16.5303L92.2051 7.10059L91.9551 5.15527H93.5566L97.8066 16.5303H95.3066ZM95.166 12.2959V14.1318H89.1582V12.2959H95.166ZM105.189 5.15527V16.5303H102.846V5.15527H105.189ZM109.721 10.0146V11.8428H104.549V10.0146H109.721ZM110.268 5.15527V6.99121H104.549V5.15527H110.268ZM110.955 12.3896V12.2256C110.955 11.6058 111.044 11.0355 111.221 10.5146C111.398 9.98861 111.656 9.53288 111.994 9.14746C112.333 8.76204 112.749 8.46257 113.244 8.24902C113.739 8.03027 114.307 7.9209 114.947 7.9209C115.588 7.9209 116.158 8.03027 116.658 8.24902C117.158 8.46257 117.577 8.76204 117.916 9.14746C118.26 9.53288 118.52 9.98861 118.697 10.5146C118.874 11.0355 118.963 11.6058 118.963 12.2256V12.3896C118.963 13.0042 118.874 13.5745 118.697 14.1006C118.52 14.6214 118.26 15.0771 117.916 15.4678C117.577 15.8532 117.161 16.1527 116.666 16.3662C116.171 16.5798 115.604 16.6865 114.963 16.6865C114.322 16.6865 113.752 16.5798 113.252 16.3662C112.757 16.1527 112.338 15.8532 111.994 15.4678C111.656 15.0771 111.398 14.6214 111.221 14.1006C111.044 13.5745 110.955 13.0042 110.955 12.3896ZM113.205 12.2256V12.3896C113.205 12.7438 113.236 13.0745 113.299 13.3818C113.361 13.6891 113.46 13.96 113.596 14.1943C113.736 14.4235 113.919 14.6032 114.143 14.7334C114.367 14.8636 114.64 14.9287 114.963 14.9287C115.275 14.9287 115.544 14.8636 115.768 14.7334C115.992 14.6032 116.171 14.4235 116.307 14.1943C116.442 13.96 116.541 13.6891 116.604 13.3818C116.671 13.0745 116.705 12.7438 116.705 12.3896V12.2256C116.705 11.8818 116.671 11.5589 116.604 11.2568C116.541 10.9495 116.439 10.6787 116.299 10.4443C116.163 10.2048 115.984 10.0173 115.76 9.88184C115.536 9.74642 115.265 9.67871 114.947 9.67871C114.63 9.67871 114.359 9.74642 114.135 9.88184C113.916 10.0173 113.736 10.2048 113.596 10.4443C113.46 10.6787 113.361 10.9495 113.299 11.2568C113.236 11.5589 113.205 11.8818 113.205 12.2256ZM125.346 14.5068V8.07715H127.596V16.5303H125.479L125.346 14.5068ZM125.596 12.7725L126.26 12.7568C126.26 13.3193 126.195 13.8428 126.064 14.3271C125.934 14.8063 125.739 15.223 125.479 15.5771C125.218 15.9261 124.89 16.1995 124.494 16.3975C124.098 16.5902 123.632 16.6865 123.096 16.6865C122.684 16.6865 122.304 16.6292 121.955 16.5146C121.611 16.3949 121.314 16.21 121.064 15.96C120.82 15.7048 120.627 15.3792 120.486 14.9834C120.351 14.5824 120.283 14.1006 120.283 13.5381V8.07715H122.533V13.5537C122.533 13.8037 122.562 14.0146 122.619 14.1865C122.682 14.3584 122.768 14.499 122.877 14.6084C122.986 14.7178 123.114 14.7959 123.26 14.8428C123.411 14.8896 123.577 14.9131 123.76 14.9131C124.223 14.9131 124.588 14.8193 124.854 14.6318C125.124 14.4443 125.314 14.1891 125.424 13.8662C125.538 13.5381 125.596 13.1735 125.596 12.7725ZM131.518 9.88184V16.5303H129.268V8.07715H131.377L131.518 9.88184ZM131.189 12.0068H130.58C130.58 11.3818 130.661 10.8193 130.822 10.3193C130.984 9.81413 131.21 9.38444 131.502 9.03027C131.794 8.6709 132.14 8.39746 132.541 8.20996C132.947 8.01725 133.4 7.9209 133.9 7.9209C134.296 7.9209 134.658 7.97819 134.986 8.09277C135.314 8.20736 135.596 8.38965 135.83 8.63965C136.07 8.88965 136.252 9.22038 136.377 9.63184C136.507 10.0433 136.572 10.5459 136.572 11.1396V16.5303H134.307V11.1318C134.307 10.7568 134.255 10.4652 134.15 10.2568C134.046 10.0485 133.893 9.90267 133.689 9.81934C133.492 9.73079 133.247 9.68652 132.955 9.68652C132.653 9.68652 132.39 9.74642 132.166 9.86621C131.947 9.986 131.765 10.1527 131.619 10.3662C131.479 10.5745 131.372 10.8193 131.299 11.1006C131.226 11.3818 131.189 11.6839 131.189 12.0068ZM143.275 14.6865V4.53027H145.541V16.5303H143.502L143.275 14.6865ZM137.932 12.4053V12.2412C137.932 11.5954 138.005 11.0094 138.15 10.4834C138.296 9.95215 138.51 9.49642 138.791 9.11621C139.072 8.736 139.419 8.44173 139.83 8.2334C140.242 8.02507 140.71 7.9209 141.236 7.9209C141.731 7.9209 142.163 8.02507 142.533 8.2334C142.908 8.44173 143.226 8.73861 143.486 9.12402C143.752 9.50423 143.965 9.95475 144.127 10.4756C144.288 10.9912 144.406 11.5563 144.479 12.1709V12.5303C144.406 13.1188 144.288 13.6657 144.127 14.1709C143.965 14.6761 143.752 15.1188 143.486 15.499C143.226 15.874 142.908 16.1657 142.533 16.374C142.158 16.5824 141.721 16.6865 141.221 16.6865C140.695 16.6865 140.226 16.5798 139.814 16.3662C139.408 16.1527 139.064 15.8532 138.783 15.4678C138.507 15.0824 138.296 14.6292 138.15 14.1084C138.005 13.5876 137.932 13.0199 137.932 12.4053ZM140.182 12.2412V12.4053C140.182 12.7542 140.208 13.0798 140.26 13.3818C140.317 13.6839 140.408 13.9521 140.533 14.1865C140.663 14.4157 140.83 14.5954 141.033 14.7256C141.242 14.8506 141.494 14.9131 141.791 14.9131C142.176 14.9131 142.494 14.8271 142.744 14.6553C142.994 14.4782 143.184 14.236 143.314 13.9287C143.45 13.6214 143.528 13.2673 143.549 12.8662V11.8428C143.533 11.5146 143.486 11.2204 143.408 10.96C143.335 10.6943 143.226 10.4678 143.08 10.2803C142.939 10.0928 142.762 9.94694 142.549 9.84277C142.34 9.73861 142.093 9.68652 141.807 9.68652C141.515 9.68652 141.265 9.75423 141.057 9.88965C140.848 10.0199 140.679 10.1995 140.549 10.4287C140.424 10.6579 140.33 10.9287 140.268 11.2412C140.21 11.5485 140.182 11.8818 140.182 12.2412ZM151.861 14.624V10.8584C151.861 10.5876 151.817 10.3558 151.729 10.1631C151.64 9.96517 151.502 9.81152 151.314 9.70215C151.132 9.59277 150.895 9.53809 150.604 9.53809C150.354 9.53809 150.137 9.58236 149.955 9.6709C149.773 9.75423 149.632 9.87663 149.533 10.0381C149.434 10.1943 149.385 10.3792 149.385 10.5928H147.135C147.135 10.2334 147.218 9.89225 147.385 9.56934C147.551 9.24642 147.794 8.96257 148.111 8.71777C148.429 8.46777 148.807 8.27246 149.244 8.13184C149.687 7.99121 150.182 7.9209 150.729 7.9209C151.385 7.9209 151.968 8.03027 152.479 8.24902C152.989 8.46777 153.39 8.7959 153.682 9.2334C153.979 9.6709 154.127 10.2178 154.127 10.874V14.4912C154.127 14.9548 154.156 15.335 154.213 15.6318C154.27 15.9235 154.354 16.1787 154.463 16.3975V16.5303H152.189C152.08 16.3011 151.997 16.0146 151.939 15.6709C151.887 15.3219 151.861 14.973 151.861 14.624ZM152.158 11.3818L152.174 12.6553H150.916C150.619 12.6553 150.361 12.6891 150.143 12.7568C149.924 12.8245 149.744 12.9209 149.604 13.0459C149.463 13.1657 149.359 13.3063 149.291 13.4678C149.229 13.6292 149.197 13.8063 149.197 13.999C149.197 14.1917 149.242 14.3662 149.33 14.5225C149.419 14.6735 149.546 14.7933 149.713 14.8818C149.88 14.9652 150.075 15.0068 150.299 15.0068C150.637 15.0068 150.932 14.9391 151.182 14.8037C151.432 14.6683 151.624 14.5016 151.76 14.3037C151.9 14.1058 151.973 13.9183 151.979 13.7412L152.572 14.6943C152.489 14.9079 152.374 15.1292 152.229 15.3584C152.088 15.5876 151.908 15.8037 151.689 16.0068C151.471 16.2048 151.208 16.3688 150.9 16.499C150.593 16.624 150.229 16.6865 149.807 16.6865C149.27 16.6865 148.783 16.5798 148.346 16.3662C147.913 16.1475 147.57 15.848 147.314 15.4678C147.064 15.0824 146.939 14.6449 146.939 14.1553C146.939 13.7126 147.023 13.3193 147.189 12.9756C147.356 12.6318 147.601 12.3428 147.924 12.1084C148.252 11.8688 148.661 11.6891 149.15 11.5693C149.64 11.4443 150.208 11.3818 150.854 11.3818H152.158ZM160.002 8.07715V9.6709H155.08V8.07715H160.002ZM156.299 5.99121H158.549V13.9834C158.549 14.2282 158.58 14.4157 158.643 14.5459C158.71 14.6761 158.809 14.7673 158.939 14.8193C159.07 14.8662 159.234 14.8896 159.432 14.8896C159.572 14.8896 159.697 14.8844 159.807 14.874C159.921 14.8584 160.018 14.8428 160.096 14.8271L160.104 16.4834C159.911 16.5459 159.702 16.5954 159.479 16.6318C159.255 16.6683 159.007 16.6865 158.736 16.6865C158.242 16.6865 157.809 16.6058 157.439 16.4443C157.075 16.2777 156.794 16.012 156.596 15.6475C156.398 15.2829 156.299 14.8037 156.299 14.21V5.99121ZM163.658 8.07715V16.5303H161.4V8.07715H163.658ZM161.26 5.87402C161.26 5.5459 161.374 5.27507 161.604 5.06152C161.833 4.84798 162.14 4.74121 162.525 4.74121C162.906 4.74121 163.21 4.84798 163.439 5.06152C163.674 5.27507 163.791 5.5459 163.791 5.87402C163.791 6.20215 163.674 6.47298 163.439 6.68652C163.21 6.90007 162.906 7.00684 162.525 7.00684C162.14 7.00684 161.833 6.90007 161.604 6.68652C161.374 6.47298 161.26 6.20215 161.26 5.87402ZM165.158 12.3896V12.2256C165.158 11.6058 165.247 11.0355 165.424 10.5146C165.601 9.98861 165.859 9.53288 166.197 9.14746C166.536 8.76204 166.952 8.46257 167.447 8.24902C167.942 8.03027 168.51 7.9209 169.15 7.9209C169.791 7.9209 170.361 8.03027 170.861 8.24902C171.361 8.46257 171.781 8.76204 172.119 9.14746C172.463 9.53288 172.723 9.98861 172.9 10.5146C173.077 11.0355 173.166 11.6058 173.166 12.2256V12.3896C173.166 13.0042 173.077 13.5745 172.9 14.1006C172.723 14.6214 172.463 15.0771 172.119 15.4678C171.781 15.8532 171.364 16.1527 170.869 16.3662C170.374 16.5798 169.807 16.6865 169.166 16.6865C168.525 16.6865 167.955 16.5798 167.455 16.3662C166.96 16.1527 166.541 15.8532 166.197 15.4678C165.859 15.0771 165.601 14.6214 165.424 14.1006C165.247 13.5745 165.158 13.0042 165.158 12.3896ZM167.408 12.2256V12.3896C167.408 12.7438 167.439 13.0745 167.502 13.3818C167.564 13.6891 167.663 13.96 167.799 14.1943C167.939 14.4235 168.122 14.6032 168.346 14.7334C168.57 14.8636 168.843 14.9287 169.166 14.9287C169.479 14.9287 169.747 14.8636 169.971 14.7334C170.195 14.6032 170.374 14.4235 170.51 14.1943C170.645 13.96 170.744 13.6891 170.807 13.3818C170.874 13.0745 170.908 12.7438 170.908 12.3896V12.2256C170.908 11.8818 170.874 11.5589 170.807 11.2568C170.744 10.9495 170.643 10.6787 170.502 10.4443C170.367 10.2048 170.187 10.0173 169.963 9.88184C169.739 9.74642 169.468 9.67871 169.15 9.67871C168.833 9.67871 168.562 9.74642 168.338 9.88184C168.119 10.0173 167.939 10.2048 167.799 10.4443C167.663 10.6787 167.564 10.9495 167.502 11.2568C167.439 11.5589 167.408 11.8818 167.408 12.2256ZM176.752 9.88184V16.5303H174.502V8.07715H176.611L176.752 9.88184ZM176.424 12.0068H175.814C175.814 11.3818 175.895 10.8193 176.057 10.3193C176.218 9.81413 176.445 9.38444 176.736 9.03027C177.028 8.6709 177.374 8.39746 177.775 8.20996C178.182 8.01725 178.635 7.9209 179.135 7.9209C179.531 7.9209 179.893 7.97819 180.221 8.09277C180.549 8.20736 180.83 8.38965 181.064 8.63965C181.304 8.88965 181.486 9.22038 181.611 9.63184C181.742 10.0433 181.807 10.5459 181.807 11.1396V16.5303H179.541V11.1318C179.541 10.7568 179.489 10.4652 179.385 10.2568C179.281 10.0485 179.127 9.90267 178.924 9.81934C178.726 9.73079 178.481 9.68652 178.189 9.68652C177.887 9.68652 177.624 9.74642 177.4 9.86621C177.182 9.986 176.999 10.1527 176.854 10.3662C176.713 10.5745 176.606 10.8193 176.533 11.1006C176.46 11.3818 176.424 11.6839 176.424 12.0068Z" fill="#2360A5"/>
</svg>
