<svg width="140" height="32" viewBox="0 0 140 32" fill="none" xmlns="http://www.w3.org/2000/svg">
<g opacity="0.6">
<path d="M21.0021 14.0438C20.6109 14.5014 20.3114 15.0536 20.1248 15.6612C19.9382 16.2687 19.8691 16.9166 19.9225 17.5587L19.9039 17.5371C19.9588 18.293 19.8711 19.0536 19.6471 19.766C19.423 20.4784 19.0679 21.1253 18.6066 21.6617C18.1453 22.198 17.5889 22.6109 16.9762 22.8714C16.3635 23.1319 15.7093 23.2338 15.0592 23.17L15.0778 23.1916C14.3002 23.1075 13.5192 23.3042 12.8413 23.7551C12.1634 24.2059 11.6216 24.8889 11.2897 25.7108C10.9579 26.5328 10.8521 27.4538 10.9869 28.3482C11.1217 29.2426 11.4905 30.0669 12.043 30.7087C12.5955 31.3505 13.3048 31.7785 14.0741 31.9344C14.8435 32.0904 15.6355 31.9666 16.3421 31.58C17.0488 31.1934 17.6357 30.5628 18.0228 29.7742C18.41 28.9856 18.5785 28.0773 18.5054 27.1733L18.525 27.1949C18.4701 26.4391 18.5578 25.6784 18.7819 24.966C19.0059 24.2536 19.361 23.6067 19.8223 23.0703C20.2836 22.534 20.84 22.1211 21.4527 21.8606C22.0654 21.6001 22.7196 21.4982 23.3697 21.562L23.3501 21.5404C23.9853 21.6068 24.6246 21.4857 25.2089 21.1883C25.7931 20.891 26.3033 20.4269 26.6923 19.8392C27.0812 19.2515 27.3362 18.5592 27.4337 17.8264C27.5313 17.0936 27.4681 16.344 27.2501 15.6471C27.0321 14.9503 26.6664 14.3286 26.1867 13.8399C25.7071 13.3511 25.1291 13.011 24.5064 12.8511C23.8836 12.6913 23.2362 12.7168 22.6242 12.9252C22.0121 13.1337 21.4553 13.5185 21.0052 14.0438H21.0021Z" fill="#1D2130"/>
<path d="M13.3882 20.3619L13.3686 20.3403C13.9211 20.405 14.4791 20.3262 15.0022 20.1095C15.5253 19.8928 16.0004 19.5436 16.3932 19.0872C16.7861 18.6308 17.0867 18.0787 17.2735 17.4706C17.4603 16.8626 17.5285 16.2139 17.4733 15.5714L17.4929 15.593C17.438 14.8372 17.5257 14.0765 17.7497 13.3642C17.9738 12.6518 18.3289 12.0048 18.7902 11.4685C19.2515 10.9321 19.8079 10.5193 20.4206 10.2587C21.0333 9.99823 21.6875 9.89631 22.3376 9.96011L22.318 9.93852C23.0956 10.0234 23.8769 9.82735 24.5552 9.37703C25.2335 8.9267 25.7758 8.24405 26.1082 7.4222C26.4405 6.60034 26.5467 5.67928 26.4123 4.78466C26.2779 3.89003 25.9094 3.0654 25.3571 2.42322C24.8048 1.78105 24.0955 1.3526 23.3261 1.19632C22.5567 1.04004 21.7645 1.16354 21.0576 1.54997C20.3508 1.9364 19.7637 2.56695 19.3764 3.35561C18.9891 4.14427 18.8204 5.05264 18.8934 5.95684L18.8749 5.93404C18.9299 6.68992 18.8424 7.45067 18.6184 8.16315C18.3944 8.87563 18.0393 9.52266 17.578 10.0591C17.1166 10.5955 16.5602 11.0083 15.9474 11.2688C15.3346 11.5292 14.6803 11.631 14.0302 11.5669L14.0488 11.5897C13.4963 11.525 12.9383 11.6039 12.4152 11.8206C11.8921 12.0373 11.417 12.3865 11.0242 12.8429C10.6313 13.2992 10.3307 13.8514 10.1439 14.4594C9.9571 15.0675 9.88886 15.7162 9.94412 16.3586L9.92554 16.337C9.98024 17.0928 9.89246 17.8534 9.66833 18.5657C9.4442 19.278 9.08912 19.9248 8.62786 20.4611C8.1666 20.9974 7.61026 21.4103 6.99764 21.6709C6.38503 21.9315 5.7309 22.0335 5.08087 21.9699L5.09945 21.9915C4.32178 21.9066 3.54052 22.1027 2.86222 22.553C2.18392 23.0034 1.6416 23.686 1.30925 24.5079C0.976893 25.3297 0.870676 26.2508 1.00509 27.1454C1.1395 28.04 1.50799 28.8647 2.0603 29.5068C2.61261 30.149 3.32186 30.5775 4.0913 30.7337C4.86073 30.89 5.6529 30.7665 6.35975 30.3801C7.0666 29.9937 7.65372 29.3631 8.04103 28.5745C8.42834 27.7858 8.59698 26.8774 8.52395 25.9732L8.54356 25.9948C8.48869 25.239 8.57634 24.4783 8.8004 23.766C9.02447 23.0536 9.37954 22.4066 9.84084 21.8703C10.3021 21.3339 10.8586 20.9211 11.4713 20.6605C12.084 20.4 12.7382 20.2981 13.3882 20.3619Z" fill="#1D2130"/>
<path d="M6.47115 17.9535C6.86234 17.496 7.16184 16.9438 7.34828 16.3362C7.53472 15.7286 7.60349 15.0807 7.5497 14.4386L7.5693 14.4602C7.51439 13.7042 7.60208 12.9433 7.82626 12.2307C8.05045 11.5182 8.40571 10.8711 8.86724 10.3347C9.32878 9.79829 9.88546 9.3855 10.4984 9.12515C11.1114 8.86479 11.7658 8.76315 12.416 8.82733L12.3964 8.80573C13.1738 8.89041 13.9548 8.69422 14.6328 8.24393C15.3107 7.79364 15.8528 7.11116 16.1849 6.28955C16.5171 5.46795 16.6232 4.54723 16.4888 3.65294C16.3544 2.75865 15.986 1.93433 15.4339 1.29239C14.8818 0.650449 14.1728 0.222139 13.4037 0.0658672C12.6345 -0.0904043 11.8426 0.0329709 11.136 0.419167C10.4294 0.805362 9.84239 1.43558 9.45511 2.22387C9.06783 3.01217 8.8991 3.92017 8.97193 4.82406L8.95335 4.80245C9.00823 5.55829 8.92057 6.31895 8.69651 7.03133C8.47245 7.74371 8.11737 8.39066 7.65607 8.92701C7.19477 9.46337 6.63835 9.87621 6.02565 10.1367C5.41296 10.3972 4.75875 10.4992 4.10868 10.4354L4.12726 10.457C3.49207 10.3907 2.85279 10.512 2.26864 10.8095C1.68449 11.107 1.17438 11.5711 0.785577 12.1589C0.396775 12.7466 0.14186 13.439 0.0444551 14.1718C-0.0529496 14.9046 0.0103068 15.6541 0.228363 16.3509C0.446419 17.0477 0.812221 17.6692 1.29187 18.1579C1.77152 18.6466 2.34949 18.9866 2.97224 19.1464C3.59498 19.3062 4.24234 19.2807 4.85434 19.0721C5.46633 18.8636 6.02316 18.4788 6.47322 17.9535H6.47115Z" fill="#1D2130"/>
<path d="M38.4424 5.98444H41.5078V23.3284H38.4424V5.98444Z" fill="#1D2130"/>
<path d="M43.2438 17.3895C43.2395 16.1431 43.5535 14.9232 44.1459 13.8845C44.7383 12.8457 45.5826 12.0347 46.5718 11.5543C47.5609 11.0739 48.6505 10.9456 49.7024 11.1857C50.7543 11.4258 51.7212 12.0235 52.4808 12.903C53.2403 13.7826 53.7582 14.9045 53.9689 16.1266C54.1797 17.3487 54.0737 18.616 53.6645 19.768C53.2552 20.92 52.5611 21.9049 51.6701 22.5979C50.7791 23.2909 49.7312 23.6608 48.6592 23.6608C47.9476 23.6702 47.2416 23.5146 46.5823 23.2031C45.923 22.8916 45.3238 22.4304 44.8195 21.8465C44.3153 21.2626 43.9163 20.5678 43.6457 19.8025C43.3752 19.0372 43.2385 18.2169 43.2438 17.3895ZM51.0093 17.3895C50.9965 16.8522 50.8478 16.3313 50.5818 15.8918C50.3157 15.4523 49.9442 15.1137 49.5135 14.9183C49.0829 14.723 48.6123 14.6796 48.1606 14.7936C47.7088 14.9075 47.296 15.1738 46.9737 15.5591C46.6514 15.9443 46.4339 16.4315 46.3485 16.9597C46.263 17.4879 46.3134 18.0337 46.4932 18.5288C46.6731 19.0238 46.9745 19.4463 47.3597 19.7433C47.745 20.0404 48.197 20.1988 48.6592 20.1987C48.9758 20.2086 49.2907 20.142 49.584 20.0033C49.8774 19.8646 50.1428 19.6567 50.3636 19.3927C50.5844 19.1288 50.7558 18.8145 50.8669 18.4697C50.978 18.125 51.0265 17.7571 51.0093 17.3895Z" fill="#1D2130"/>
<path d="M66.2915 11.4494V22.7296C66.2915 26.7209 63.6143 28.4081 60.8968 28.4081C59.9399 28.4914 58.9819 28.2666 58.1277 27.7586C57.2734 27.2506 56.556 26.4788 56.0541 25.528L58.6695 23.77C58.8804 24.2656 59.2166 24.6745 59.6329 24.9419C60.0492 25.2094 60.5258 25.3226 60.9989 25.2664C61.3013 25.3152 61.6093 25.2842 61.9 25.1758C62.1907 25.0675 62.4568 24.8845 62.6785 24.6405C62.9002 24.3964 63.0718 24.0976 63.1807 23.766C63.2897 23.4344 63.3331 23.0785 63.3077 22.7248V21.6388C62.9488 22.1494 62.4919 22.5551 61.9737 22.8233C61.4556 23.0916 60.8905 23.2148 60.3239 23.1832C58.9758 23.1338 57.6971 22.4763 56.7586 21.3501C55.82 20.2238 55.2951 18.7171 55.2951 17.1489C55.2951 15.5806 55.82 14.0739 56.7586 12.9477C57.6971 11.8214 58.9758 11.164 60.3239 11.1146C60.8905 11.083 61.4556 11.2062 61.9737 11.4744C62.4919 11.7426 62.9488 12.1483 63.3077 12.659V11.447L66.2915 11.4494ZM63.3088 17.1507C63.3294 16.5763 63.2017 16.0079 62.9421 15.5186C62.6825 15.0293 62.3029 14.6416 61.8522 14.4052C61.4015 14.1689 60.9002 14.0948 60.413 14.1925C59.9257 14.2902 59.4748 14.5552 59.1182 14.9534C58.7615 15.3516 58.5156 15.8648 58.4119 16.4269C58.3082 16.989 58.3516 17.5743 58.5365 18.1075C58.7214 18.6407 59.0392 19.0973 59.4492 19.4187C59.8592 19.7401 60.3425 19.9114 60.8369 19.9107C61.159 19.9369 61.4822 19.8843 61.7857 19.7564C62.0892 19.6284 62.3664 19.428 62.5992 19.168C62.8321 18.908 63.0155 18.5942 63.1377 18.2467C63.2599 17.8993 63.3182 17.5259 63.3088 17.1507Z" fill="#1D2130"/>
<path d="M68.0275 17.3895C68.0232 16.1431 68.3372 14.9232 68.9296 13.8845C69.5221 12.8457 70.3663 12.0347 71.3555 11.5543C72.3446 11.0739 73.4342 10.9456 74.4861 11.1857C75.538 11.4258 76.505 12.0235 77.2645 12.903C78.024 13.7826 78.5419 14.9045 78.7527 16.1266C78.9634 17.3487 78.8574 18.616 78.4482 19.768C78.0389 20.92 77.3448 21.9049 76.4538 22.5979C75.5628 23.2909 74.5149 23.6608 73.4429 23.6608C72.7313 23.6702 72.0253 23.5146 71.366 23.2031C70.7067 22.8916 70.1075 22.4304 69.6033 21.8465C69.0991 21.2626 68.7 20.5678 68.4295 19.8025C68.1589 19.0372 68.0222 18.2169 68.0275 17.3895ZM75.793 17.3895C75.7802 16.8522 75.6315 16.3313 75.3655 15.8918C75.0994 15.4523 74.7279 15.1137 74.2972 14.9183C73.8666 14.723 73.396 14.6796 72.9443 14.7936C72.4925 14.9075 72.0797 15.1738 71.7574 15.5591C71.4351 15.9443 71.2177 16.4315 71.1322 16.9597C71.0467 17.4879 71.0971 18.0337 71.277 18.5288C71.4568 19.0238 71.7582 19.4463 72.1434 19.7433C72.5287 20.0404 72.9807 20.1988 73.4429 20.1987C73.7595 20.2086 74.0744 20.142 74.3677 20.0033C74.6611 19.8646 74.9265 19.6567 75.1473 19.3927C75.3681 19.1288 75.5395 18.8145 75.6506 18.4697C75.7618 18.125 75.8102 17.7571 75.793 17.3895Z" fill="#1D2130"/>
<path d="M80.2878 8.26569C80.2878 7.84275 80.3957 7.42931 80.5978 7.07764C80.7999 6.72598 81.0871 6.45188 81.4232 6.29003C81.7592 6.12818 82.1291 6.08583 82.4858 6.16834C82.8426 6.25085 83.1703 6.45452 83.4275 6.75359C83.6847 7.05266 83.8599 7.43369 83.9309 7.8485C84.0018 8.26332 83.9654 8.69329 83.8262 9.08404C83.687 9.47479 83.4513 9.80877 83.1488 10.0437C82.8464 10.2787 82.4908 10.4041 82.127 10.4041C81.6407 10.3985 81.1757 10.1714 80.8318 9.77158C80.488 9.37176 80.2926 8.8311 80.2878 8.26569ZM80.5974 11.4494H83.6638V23.3296H80.5933L80.5974 11.4494Z" fill="#1D2130"/>
<path d="M96.8995 17.3895C96.9349 18.1746 96.8365 18.9602 96.6099 19.7009C96.3833 20.4417 96.033 21.1231 95.5791 21.7059C95.1253 22.2887 94.5768 22.7615 93.9652 23.097C93.3537 23.4324 92.6911 23.6241 92.0156 23.6608C91.4476 23.6968 90.8797 23.5854 90.3533 23.3347C89.8269 23.084 89.355 22.7002 88.972 22.2111V28.0805H85.9066V11.4493H88.972V12.5654C89.3552 12.0767 89.8271 11.6932 90.3535 11.4427C90.8799 11.1922 91.4477 11.0809 92.0156 11.1169C92.6912 11.1535 93.3539 11.345 93.9656 11.6806C94.5773 12.0161 95.1259 12.4889 95.5798 13.0719C96.0337 13.6549 96.384 14.3365 96.6105 15.0774C96.837 15.8184 96.9352 16.6042 96.8995 17.3895ZM93.8342 17.3895C93.8222 16.8335 93.6694 16.2939 93.395 15.8384C93.1206 15.3828 92.7367 15.0315 92.2914 14.8283C91.8461 14.6252 91.3592 14.5793 90.8915 14.6963C90.4239 14.8134 89.9964 15.0882 89.6624 15.4864C89.3284 15.8846 89.1029 16.3885 89.014 16.9349C88.9251 17.4814 88.9769 18.0463 89.1627 18.5587C89.3486 19.0712 89.6603 19.5086 90.0589 19.8161C90.4575 20.1236 90.9252 20.2876 91.4036 20.2875C91.732 20.3045 92.0598 20.2406 92.3654 20.1C92.6711 19.9594 92.9477 19.7452 93.1772 19.4716C93.4067 19.1979 93.5839 18.871 93.6971 18.5122C93.8103 18.1533 93.857 17.7707 93.8342 17.3895Z" fill="#1D2130"/>
<path d="M106.359 19.7643C106.359 22.4968 104.316 23.6608 102.109 23.6608C101.218 23.7547 100.323 23.5355 99.5394 23.0314C98.7561 22.5274 98.1209 21.7618 97.7159 20.8336L100.371 19.0755C100.479 19.5046 100.71 19.8778 101.025 20.1329C101.341 20.388 101.722 20.5095 102.105 20.4771C102.84 20.4771 103.209 20.2155 103.209 19.7415C103.209 18.4335 98.1813 19.1235 98.1813 15.0134C98.1813 12.4226 100.062 11.117 102.187 11.117C102.986 11.0876 103.777 11.3079 104.478 11.7549C105.178 12.202 105.763 12.8594 106.171 13.6586L103.555 15.2979C103.441 14.9867 103.25 14.7216 103.006 14.5357C102.763 14.3499 102.478 14.2514 102.187 14.2526C101.655 14.2526 101.328 14.4926 101.328 14.9174C101.332 16.2723 106.359 15.3687 106.359 19.7643Z" fill="#1D2130"/>
<path d="M117.556 11.4494V23.3296H114.491V22.2124C114.137 22.7054 113.688 23.0938 113.18 23.3458C112.672 23.5978 112.12 23.7062 111.57 23.662C109.506 23.662 107.751 21.952 107.751 18.7419V11.4494H110.816V18.2199C110.791 18.5029 110.818 18.7889 110.897 19.0581C110.977 19.3274 111.105 19.5734 111.274 19.7789C111.443 19.9845 111.649 20.1448 111.877 20.2486C112.105 20.3524 112.349 20.3972 112.594 20.38C113.717 20.38 114.494 19.6203 114.494 17.9331V11.453L117.556 11.4494Z" fill="#1D2130"/>
<path d="M135.133 16.0347V23.3285H132.067V16.3431C132.067 15.1551 131.577 14.3955 130.597 14.3955C129.575 14.3955 129.002 15.2271 129.002 16.6287V23.3285H125.938V16.3431C125.938 15.1551 125.447 14.3955 124.466 14.3955C123.444 14.3955 122.872 15.2271 122.872 16.6287V23.3285H119.807V11.4482H122.872V12.5402C123.19 12.0558 123.607 11.6716 124.085 11.4228C124.564 11.1739 125.088 11.0684 125.611 11.1158C126.135 11.086 126.657 11.2147 127.126 11.4893C127.595 11.764 127.995 12.1753 128.287 12.683C128.626 12.1518 129.076 11.7294 129.595 11.4553C130.113 11.1813 130.682 11.0644 131.25 11.1158C133.596 11.117 135.133 13.0647 135.133 16.0347Z" fill="#1D2130"/>
<path d="M137.725 11.3762C138.982 11.3762 140 10.1921 140 8.73135C140 7.27064 138.982 6.0865 137.725 6.0865C136.469 6.0865 135.45 7.27064 135.45 8.73135C135.45 10.1921 136.469 11.3762 137.725 11.3762Z" fill="#1D2130"/>
</g>
</svg>
