<svg width="138" height="38" viewBox="0 0 138 38" fill="none" xmlns="http://www.w3.org/2000/svg">
<path d="M133.946 32.5376H135.296C135.915 32.5376 136.661 32.5376 137.09 33.1458C137.436 33.6302 137.502 34.2693 137.416 34.9105C137.377 35.283 137.265 35.6441 137.085 35.9726C136.905 36.3011 136.661 36.5904 136.368 36.8236C135.855 37.205 135.278 37.205 134.593 37.205H133.282L133.946 32.5376ZM134.006 36.6752H134.639C135.084 36.6752 135.554 36.6484 135.896 36.4154C136.556 35.9701 136.684 35.2073 136.721 34.9352C136.746 34.762 136.847 33.9663 136.476 33.4818C136.226 33.1519 135.857 33.0695 135.292 33.0695H134.517L134.006 36.6752Z" fill="#BF0000"/>
<path d="M126.553 32.5376H129.483L129.39 33.086H127.108L126.861 34.5415H129.034L128.941 35.0836H126.768L126.504 36.636H128.838L128.743 37.205H125.76L126.553 32.5376Z" fill="#BF0000"/>
<path d="M119.53 37.2052L119.798 33.0821H118.233L118.27 32.5337H122.049L122.012 33.0821H120.447L120.179 37.2052H119.53Z" fill="#BF0000"/>
<path d="M112.464 32.5376H113.155L114.757 37.205H114.052L113.623 35.9887H111.456L110.877 37.205H110.211L112.464 32.5376ZM111.695 35.4589H113.46L112.741 33.1705L111.695 35.4589Z" fill="#BF0000"/>
<path d="M103.243 32.5376H104.911C105.15 32.5376 105.64 32.5376 105.968 32.7582C106.122 32.8603 106.245 33.0027 106.324 33.1699C106.403 33.3371 106.435 33.5227 106.416 33.7065C106.395 34.021 106.256 34.3159 106.026 34.5311C105.865 34.6799 105.668 34.7843 105.455 34.8342C105.892 34.9517 106.073 35.1517 106.102 35.733C106.103 36.228 106.165 36.7209 106.286 37.2009H105.595C105.52 36.7926 105.478 36.379 105.469 35.9639C105.443 35.2857 105.294 35.0919 104.513 35.0919H103.7L103.548 37.1988H102.907L103.243 32.5376ZM103.725 34.5476H104.746C104.957 34.5551 105.167 34.52 105.364 34.4446C105.472 34.3812 105.562 34.2909 105.625 34.1826C105.688 34.0742 105.722 33.9514 105.723 33.8261C105.779 33.0695 105.104 33.0695 104.847 33.0695H103.826L103.725 34.5476Z" fill="#BF0000"/>
<path d="M95.8659 32.5376H98.7934L98.7398 33.086H96.4535L96.3092 34.5415H98.48L98.4264 35.0836H96.2556L96.101 36.636H98.4347L98.379 37.205H95.3979L95.8659 32.5376Z" fill="#BF0000"/>
<path d="M88.7311 32.5376H89.3723L89.1001 36.6298H91.271L91.2339 37.205H88.4219L88.7311 32.5376Z" fill="#BF0000"/>
<path d="M81.1794 32.5376H84.1151L84.078 33.086H81.7896L81.6927 34.5415H83.8656L83.8285 35.0836H81.6576L81.5546 36.636H83.8883L83.8491 37.205H80.8701L81.1794 32.5376Z" fill="#BF0000"/>
<path d="M75.9556 33.7977C75.9288 33.6369 75.8464 32.9895 74.9475 32.9895C73.8219 32.9895 73.6219 34.1419 73.6219 34.9171C73.6219 35.7953 73.8734 36.7457 74.9413 36.7457C75.0798 36.7538 75.2184 36.7332 75.3486 36.6853C75.4788 36.6374 75.5977 36.5632 75.6979 36.4674C75.8207 36.3303 75.899 36.1592 75.9226 35.9767H76.6339C76.537 36.8941 75.6897 37.2755 74.8898 37.2755C73.2405 37.2755 72.9292 35.8324 72.9292 34.9233C72.9292 33.9399 73.3106 32.4741 74.9722 32.4741C75.632 32.4741 76.5638 32.738 76.6463 33.7977H75.9556Z" fill="#BF0000"/>
<path d="M68.1499 33.7977C68.1251 33.6369 68.0406 32.9895 67.1417 32.9895C66.0182 32.9895 65.8161 34.1419 65.8161 34.9171C65.8161 35.7953 66.0697 36.7457 67.1355 36.7457C67.274 36.754 67.4127 36.7336 67.5429 36.6857C67.6731 36.6378 67.792 36.5635 67.8922 36.4674C68.0145 36.3298 68.0934 36.1591 68.1189 35.9767H68.8302C68.7333 36.8941 67.886 37.2755 67.084 37.2755C65.4347 37.2755 65.1255 35.8324 65.1255 34.9233C65.1255 33.9399 65.5069 32.4741 67.1685 32.4741C67.8282 32.4741 68.758 32.738 68.8426 33.7977H68.1499Z" fill="#BF0000"/>
<path d="M58.7573 32.5376H59.4479L61.3364 37.205H60.6313L60.1262 35.9887H57.9615L57.4564 37.205H56.7905L58.7573 32.5376ZM58.1739 35.4589H59.9386L59.0789 33.1705L58.1739 35.4589Z" fill="#BF0000"/>
<path d="M3.28605 33.7002C3.2139 33.2672 2.87373 32.9704 2.23258 32.9704C2.03895 32.9559 1.84448 32.9836 1.6626 33.0516C1.48072 33.1196 1.31576 33.2262 1.1791 33.3641C0.835914 33.7872 0.658557 34.3207 0.680191 34.865C0.680191 35.2587 0.764716 35.9246 1.10694 36.3328C1.41206 36.6812 1.8821 36.7905 2.3439 36.7905C2.68836 36.7944 3.03131 36.7443 3.36027 36.6421V35.2525H2.29648V34.7165H4.00967V37.0173C3.47612 37.2078 2.91455 37.3081 2.34803 37.3141C1.48834 37.3141 0.985308 37.0688 0.655452 36.7328C0.210989 36.2478 -0.0238974 35.6068 0.00192439 34.9495C0.00192439 34.4836 0.117374 33.3848 1.00386 32.789C1.39742 32.5597 1.8474 32.4454 2.30267 32.4591C2.55415 32.4435 2.80616 32.4797 3.04306 32.5655C3.27996 32.6513 3.4967 32.7849 3.67982 32.958C3.87622 33.1555 3.9879 33.4217 3.99112 33.7002H3.28605Z" fill="#BF0000"/>
<path d="M8.63379 32.5376H10.3099C10.549 32.5376 11.0397 32.5376 11.384 32.7582C11.5446 32.8581 11.6766 32.998 11.7669 33.1643C11.8573 33.3305 11.9029 33.5173 11.8994 33.7065C11.9065 33.9691 11.8218 34.2259 11.66 34.4329C11.4983 34.6398 11.2694 34.7839 11.0129 34.8404C11.4582 34.9579 11.6582 35.1579 11.7241 35.7392C11.761 36.2385 11.8586 36.7314 12.0148 37.2071H11.3221C11.2218 36.8007 11.1528 36.3871 11.116 35.9701C11.0376 35.2919 10.8768 35.0981 10.0852 35.0981H9.27907V37.205H8.63997L8.63379 32.5376ZM9.25227 34.5476H10.2831C10.4942 34.5571 10.7049 34.522 10.9015 34.4446C11.0065 34.3809 11.0917 34.2894 11.1477 34.1802C11.2038 34.071 11.2285 33.9484 11.219 33.8261C11.219 33.0695 10.547 33.0695 10.2893 33.0695H9.25845L9.25227 34.5476Z" fill="#BF0000"/>
<path d="M16.8636 33.0434C17.0656 32.8362 17.3085 32.6733 17.5768 32.5651C17.8451 32.4569 18.133 32.4056 18.4222 32.4146C19.7148 32.4146 20.5291 33.2392 20.5291 34.8266C20.5291 36.0636 20.0323 37.315 18.3706 37.315C16.7811 37.315 16.2637 36.1832 16.2637 34.905C16.2637 34.3731 16.3544 33.5917 16.8636 33.0434ZM17.3563 36.3419C17.4845 36.4866 17.6439 36.6002 17.8225 36.6741C18.0011 36.748 18.1942 36.7804 18.3871 36.7686C18.5799 36.7789 18.7725 36.7458 18.9508 36.672C19.1292 36.5982 19.2888 36.4854 19.4179 36.3419C19.7993 35.876 19.8302 35.1379 19.8302 34.8225C19.8302 33.7629 19.4818 32.9671 18.4139 32.9671C17.2306 32.9671 16.9275 33.9175 16.9275 34.874C16.9419 35.375 17.0326 35.9378 17.3563 36.3398V36.3419Z" fill="#BF0000"/>
<path d="M24.8898 32.5376L25.8979 36.3763L27.0091 32.5376H27.8111L28.8646 36.4092L29.9242 32.5376H30.5592L29.1759 37.205H28.4522L27.372 33.2159L26.2154 37.205H25.5165L24.1909 32.5376H24.8898Z" fill="#BF0000"/>
<path d="M35.804 37.2052V33.0821H34.2393V32.5337H38.0079V33.0821H36.4431V37.2052H35.804Z" fill="#BF0000"/>
<path d="M42.7595 32.5376V34.5415H44.9778V32.5376H45.6231V37.205H44.9778V35.0981H42.7595V37.205H42.1143V32.5376H42.7595Z" fill="#BF0000"/>
<path d="M0.632812 27.7617H136.263" stroke="#BF0000" stroke-width="1.81393" stroke-miterlimit="10"/>
<path d="M1.73193 0.539551H11.9595C13.3779 0.539551 14.5839 0.745709 15.5776 1.15803C16.4945 1.52018 17.3212 2.07811 18 2.79286C18.6198 3.46185 19.0856 4.2584 19.3648 5.12657C19.9362 6.87463 19.9362 8.75923 19.3648 10.5073C19.083 11.3694 18.6173 12.16 18 12.8245C17.3194 13.54 16.4905 14.098 15.5715 14.4593C14.5778 14.8717 13.3717 15.0778 11.9533 15.0778H6.71482V23.2046H1.73193V0.539551ZM6.71482 11.2041H10.5886C11.1408 11.2057 11.6923 11.1637 12.2378 11.0784C12.7306 11.0061 13.2046 10.8387 13.6335 10.5856C14.043 10.335 14.3777 9.97902 14.6025 9.55484C14.8675 9.0122 14.9929 8.41203 14.9674 7.80869C14.9929 7.20534 14.8675 6.60517 14.6025 6.06253C14.3777 5.63835 14.043 5.28235 13.6335 5.03174C13.2055 4.77746 12.7322 4.60872 12.2399 4.53489C11.6944 4.44885 11.1429 4.40611 10.5906 4.40708H6.71482V11.2041Z" fill="#BF0000"/>
<path d="M35.6017 14.8253H35.7934L41.6649 23.2366H36.047L30.3322 15.0789H27.8892V23.2366H22.9043V0.540619H33.0948C34.3349 0.509462 35.5693 0.719511 36.7294 1.15909C37.6572 1.52085 38.4961 2.07847 39.1889 2.79393C39.8163 3.46007 40.288 4.25713 40.5701 5.12764C40.8541 5.99265 40.9988 6.89727 40.999 7.80769C40.9973 8.57456 40.8905 9.33758 40.6815 10.0754C40.4753 10.82 40.1479 11.5256 39.7125 12.1638C39.2645 12.8122 38.6996 13.3715 38.0467 13.8131C37.3042 14.3043 36.4741 14.6479 35.6017 14.8253ZM31.7609 4.41227H27.8892V11.2382H31.7609C32.3242 11.2401 32.8867 11.1973 33.4432 11.1103C33.9341 11.0402 34.4048 10.8674 34.8245 10.6032C35.2224 10.3417 35.5451 9.98062 35.7604 9.55591C36.0152 9.01027 36.1354 8.41146 36.1109 7.80975C36.1375 7.19792 36.0173 6.58859 35.7604 6.03267C35.5478 5.61048 35.2242 5.25415 34.8245 5.00188C34.4026 4.74787 33.932 4.5856 33.4432 4.52566C32.8858 4.44882 32.3236 4.41093 31.7609 4.41227Z" fill="#BF0000"/>
<path d="M50.0777 18.9826H62.8596V23.1717H45.2515V0.444824H61.7896V4.63396H50.0777V9.74462H60.4248V14.1564H50.0777V18.9826Z" fill="#BF0000"/>
<path d="M86.8361 17.1427C86.3536 18.0466 85.7563 18.8844 85.059 19.6351C84.3648 20.3817 83.5745 21.0327 82.7088 21.571C81.8242 22.1179 80.8682 22.5397 79.8679 22.8244C78.8312 23.1226 77.7574 23.2726 76.6786 23.2697C75.1403 23.2791 73.6167 22.971 72.2029 22.3647C69.4502 21.1981 67.2589 19.0068 66.0923 16.2541C65.4852 14.8406 65.1771 13.3168 65.1873 11.7785C65.179 10.2503 65.4871 8.73694 66.0923 7.33368C66.6742 5.96739 67.5086 4.72312 68.5518 3.66613C69.5978 2.61366 70.8376 1.77358 72.2029 1.19223C74.604 0.181888 77.2764 0.0133266 79.7854 0.713945C80.7605 0.992029 81.6943 1.39827 82.5624 1.92203C83.4141 2.43445 84.1934 3.05846 84.8797 3.77745C85.5656 4.49338 86.1579 5.29349 86.6423 6.15858C86.1558 6.41284 85.7641 6.619 85.4672 6.77705C85.1703 6.9358 84.8858 7.08423 84.6096 7.22236L83.7025 7.68209C83.3623 7.8532 82.9294 8.06348 82.3996 8.31706C81.8403 7.33463 81.0299 6.51855 80.0514 5.95242C79.1524 5.4295 78.1435 5.12416 77.1054 5.0608C76.0672 4.99744 75.0287 5.17782 74.0728 5.58752C73.2762 5.93416 72.5497 6.4232 71.9287 7.03063C71.3094 7.64109 70.8187 8.36941 70.4856 9.17261C70.14 9.99972 69.962 10.8872 69.962 11.7836C69.962 12.68 70.14 13.5675 70.4856 14.3946C71.1699 16.0109 72.4564 17.2974 74.0728 17.9817C74.9006 18.3333 75.7916 18.5115 76.691 18.5054C77.918 18.518 79.1233 18.182 80.1668 17.5364C81.1899 16.9171 82.0284 16.0351 82.5954 14.9821L83.8798 15.648C84.2096 15.8171 84.5113 15.9758 84.7848 16.1243C85.0611 16.2727 85.3456 16.4211 85.6425 16.5696C85.9393 16.718 86.329 16.9056 86.8361 17.1427Z" fill="#BF0000"/>
<path d="M89.9165 0.539551H94.8994V23.2046H89.9165V0.539551Z" fill="#BF0000"/>
<path d="M102.67 15.6825C102.649 16.3516 102.79 17.0159 103.082 17.6184C103.339 18.1277 103.714 18.5681 104.177 18.9027C104.655 19.2434 105.194 19.4916 105.764 19.6346C106.392 19.7961 107.037 19.8758 107.685 19.8717C108.163 19.869 108.64 19.8318 109.112 19.7604C109.607 19.6907 110.089 19.5461 110.541 19.3315C110.973 19.1305 111.354 18.832 111.652 18.4595C111.96 18.0549 112.117 17.5555 112.097 17.0473C112.108 16.7714 112.062 16.4962 111.961 16.2392C111.859 15.9822 111.706 15.7491 111.51 15.5547C111.062 15.1381 110.539 14.8094 109.97 14.5858C109.275 14.3024 108.557 14.0796 107.824 13.9199C107.019 13.7412 106.204 13.5351 105.378 13.3014C104.539 13.0909 103.713 12.8307 102.905 12.5221C102.129 12.2357 101.4 11.837 100.74 11.3388C100.104 10.8517 99.58 10.2346 99.2019 9.52873C98.7856 8.70352 98.5835 7.78686 98.6143 6.86311C98.5896 5.80067 98.8509 4.75111 99.371 3.82433C99.8587 2.97724 100.525 2.24636 101.323 1.68235C102.148 1.10168 103.068 0.671713 104.043 0.412419C105.036 0.140818 106.06 0.00216976 107.09 0.000102351C108.239 -0.00422459 109.385 0.128656 110.504 0.395926C111.544 0.639722 112.529 1.07604 113.408 1.68235C114.25 2.26896 114.94 3.04597 115.425 3.95009C115.921 4.87093 116.17 5.98762 116.171 7.30016H111.343C111.325 6.71494 111.18 6.14069 110.916 5.61791C110.689 5.19141 110.356 4.83067 109.949 4.57063C109.52 4.30664 109.046 4.12421 108.551 4.03255C107.997 3.92358 107.434 3.8704 106.869 3.87381C106.464 3.8738 106.06 3.91595 105.663 3.99957C105.274 4.07893 104.902 4.22992 104.568 4.44487C104.243 4.65278 103.967 4.92844 103.758 5.25301C103.538 5.61069 103.428 6.02493 103.441 6.4446C103.426 6.82112 103.516 7.19436 103.7 7.52281C103.869 7.79906 104.203 8.04645 104.7 8.2691C105.37 8.55115 106.059 8.78471 106.762 8.96798C107.64 9.21125 108.788 9.51292 110.207 9.87301C110.481 9.93692 110.842 10.0256 111.285 10.1431C111.766 10.2708 112.239 10.4299 112.699 10.6193C113.219 10.8316 113.718 11.0918 114.19 11.3965C114.697 11.7228 115.157 12.1183 115.555 12.5716C115.984 13.0633 116.324 13.6273 116.556 14.2374C116.822 14.9533 116.951 15.7128 116.936 16.4763C116.945 17.4704 116.739 18.4548 116.334 19.3625C115.925 20.2597 115.311 21.0479 114.54 21.6632C113.661 22.3532 112.66 22.8702 111.588 23.1867C110.264 23.5787 108.888 23.7664 107.508 23.7433C106.281 23.7461 105.059 23.586 103.873 23.2671C102.76 22.9785 101.711 22.4826 100.781 21.8054C99.8237 21.1075 99.0552 20.1821 98.5452 19.1127C98.0351 18.0433 97.7996 16.8637 97.8598 15.6805L102.67 15.6825Z" fill="#BF0000"/>
<path d="M124.135 18.9826H136.929V23.1717H119.311V0.444824H135.849V4.63396H124.135V9.74462H134.484V14.1564H124.135V18.9826Z" fill="#BF0000"/>
<path d="M79.4806 11.8853C79.4806 12.4763 79.3054 13.0541 78.9771 13.5456C78.6488 14.0371 78.1822 14.4203 77.6362 14.6466C77.0902 14.873 76.4894 14.9325 75.9096 14.8174C75.3298 14.7024 74.7972 14.4181 74.379 14.0005C73.9607 13.5828 73.6757 13.0506 73.5599 12.471C73.4441 11.8914 73.5027 11.2905 73.7283 10.7442C73.9539 10.1979 74.3364 9.73075 74.8275 9.40179C75.3185 9.07283 75.8961 8.89681 76.4872 8.896C76.8801 8.89546 77.2692 8.97238 77.6324 9.12236C77.9955 9.27234 78.3256 9.49245 78.6036 9.77008C78.8816 10.0477 79.1022 10.3774 79.2527 10.7404C79.4031 11.1033 79.4806 11.4924 79.4806 11.8853Z" fill="#BF0000"/>
</svg>
